<?xml version="1.0" encoding="utf-8" standalone="no"?>
<!DOCTYPE svg PUBLIC "-//W3C//DTD SVG 1.1//EN"
  "http://www.w3.org/Graphics/SVG/1.1/DTD/svg11.dtd">
<svg xmlns:xlink="http://www.w3.org/1999/xlink" width="526.59pt" height="489.245625pt" viewBox="0 0 526.59 489.245625" xmlns="http://www.w3.org/2000/svg" version="1.1">
 <metadata>
  <rdf:RDF xmlns:dc="http://purl.org/dc/elements/1.1/" xmlns:cc="http://creativecommons.org/ns#" xmlns:rdf="http://www.w3.org/1999/02/22-rdf-syntax-ns#">
   <cc:Work>
    <dc:type rdf:resource="http://purl.org/dc/dcmitype/StillImage"/>
    <dc:date>2023-06-27T16:09:28.212245</dc:date>
    <dc:format>image/svg+xml</dc:format>
    <dc:creator>
     <cc:Agent>
      <dc:title>Matplotlib v3.7.1, https://matplotlib.org/</dc:title>
     </cc:Agent>
    </dc:creator>
   </cc:Work>
  </rdf:RDF>
 </metadata>
 <defs>
  <style type="text/css">*{stroke-linejoin: round; stroke-linecap: butt}</style>
 </defs>
 <g id="figure_1">
  <g id="patch_1">
   <path d="M 0 489.245625 
L 526.59 489.245625 
L 526.59 0 
L 0 0 
z
" style="fill: #ffffff"/>
  </g>
  <g id="axes_1">
   <g id="patch_2">
    <path d="M 7.2 451.318125 
L 453.6 451.318125 
L 453.6 16.438125 
L 7.2 16.438125 
z
" style="fill: #ffffff"/>
   </g>
   <g id="matplotlib.axis_1">
    <g id="xtick_1">
     <g id="line2d_1">
      <defs>
       <path id="md43396c9d9" d="M 0 0 
L 0 -10 
" style="stroke: #000000; stroke-width: 2"/>
      </defs>
      <g>
       <use xlink:href="#md43396c9d9" x="31.682038" y="451.318125" style="stroke: #000000; stroke-width: 2"/>
      </g>
     </g>
     <g id="text_1">
      <!-- 1.6 -->
      <g transform="translate(22.140163 463.93625) scale(0.12 -0.12)">
       <defs>
        <path id="DejaVuSans-31" d="M 794 531 
L 1825 531 
L 1825 4091 
L 703 3866 
L 703 4441 
L 1819 4666 
L 2450 4666 
L 2450 531 
L 3481 531 
L 3481 0 
L 794 0 
L 794 531 
z
" transform="scale(0.015625)"/>
        <path id="DejaVuSans-2e" d="M 684 794 
L 1344 794 
L 1344 0 
L 684 0 
L 684 794 
z
" transform="scale(0.015625)"/>
        <path id="DejaVuSans-36" d="M 2113 2584 
Q 1688 2584 1439 2293 
Q 1191 2003 1191 1497 
Q 1191 994 1439 701 
Q 1688 409 2113 409 
Q 2538 409 2786 701 
Q 3034 994 3034 1497 
Q 3034 2003 2786 2293 
Q 2538 2584 2113 2584 
z
M 3366 4563 
L 3366 3988 
Q 3128 4100 2886 4159 
Q 2644 4219 2406 4219 
Q 1781 4219 1451 3797 
Q 1122 3375 1075 2522 
Q 1259 2794 1537 2939 
Q 1816 3084 2150 3084 
Q 2853 3084 3261 2657 
Q 3669 2231 3669 1497 
Q 3669 778 3244 343 
Q 2819 -91 2113 -91 
Q 1303 -91 875 529 
Q 447 1150 447 2328 
Q 447 3434 972 4092 
Q 1497 4750 2381 4750 
Q 2619 4750 2861 4703 
Q 3103 4656 3366 4563 
z
" transform="scale(0.015625)"/>
       </defs>
       <use xlink:href="#DejaVuSans-31"/>
       <use xlink:href="#DejaVuSans-2e" x="63.623047"/>
       <use xlink:href="#DejaVuSans-36" x="95.410156"/>
      </g>
     </g>
    </g>
    <g id="xtick_2">
     <g id="line2d_2">
      <g>
       <use xlink:href="#md43396c9d9" x="101.413966" y="451.318125" style="stroke: #000000; stroke-width: 2"/>
      </g>
     </g>
     <g id="text_2">
      <!-- 2.4 -->
      <g transform="translate(91.872091 463.93625) scale(0.12 -0.12)">
       <defs>
        <path id="DejaVuSans-32" d="M 1228 531 
L 3431 531 
L 3431 0 
L 469 0 
L 469 531 
Q 828 903 1448 1529 
Q 2069 2156 2228 2338 
Q 2531 2678 2651 2914 
Q 2772 3150 2772 3378 
Q 2772 3750 2511 3984 
Q 2250 4219 1831 4219 
Q 1534 4219 1204 4116 
Q 875 4013 500 3803 
L 500 4441 
Q 881 4594 1212 4672 
Q 1544 4750 1819 4750 
Q 2544 4750 2975 4387 
Q 3406 4025 3406 3419 
Q 3406 3131 3298 2873 
Q 3191 2616 2906 2266 
Q 2828 2175 2409 1742 
Q 1991 1309 1228 531 
z
" transform="scale(0.015625)"/>
        <path id="DejaVuSans-34" d="M 2419 4116 
L 825 1625 
L 2419 1625 
L 2419 4116 
z
M 2253 4666 
L 3047 4666 
L 3047 1625 
L 3713 1625 
L 3713 1100 
L 3047 1100 
L 3047 0 
L 2419 0 
L 2419 1100 
L 313 1100 
L 313 1709 
L 2253 4666 
z
" transform="scale(0.015625)"/>
       </defs>
       <use xlink:href="#DejaVuSans-32"/>
       <use xlink:href="#DejaVuSans-2e" x="63.623047"/>
       <use xlink:href="#DejaVuSans-34" x="95.410156"/>
      </g>
     </g>
    </g>
    <g id="xtick_3">
     <g id="line2d_3">
      <g>
       <use xlink:href="#md43396c9d9" x="171.145894" y="451.318125" style="stroke: #000000; stroke-width: 2"/>
      </g>
     </g>
     <g id="text_3">
      <!-- 3.2 -->
      <g transform="translate(161.604019 463.93625) scale(0.12 -0.12)">
       <defs>
        <path id="DejaVuSans-33" d="M 2597 2516 
Q 3050 2419 3304 2112 
Q 3559 1806 3559 1356 
Q 3559 666 3084 287 
Q 2609 -91 1734 -91 
Q 1441 -91 1130 -33 
Q 819 25 488 141 
L 488 750 
Q 750 597 1062 519 
Q 1375 441 1716 441 
Q 2309 441 2620 675 
Q 2931 909 2931 1356 
Q 2931 1769 2642 2001 
Q 2353 2234 1838 2234 
L 1294 2234 
L 1294 2753 
L 1863 2753 
Q 2328 2753 2575 2939 
Q 2822 3125 2822 3475 
Q 2822 3834 2567 4026 
Q 2313 4219 1838 4219 
Q 1578 4219 1281 4162 
Q 984 4106 628 3988 
L 628 4550 
Q 988 4650 1302 4700 
Q 1616 4750 1894 4750 
Q 2613 4750 3031 4423 
Q 3450 4097 3450 3541 
Q 3450 3153 3228 2886 
Q 3006 2619 2597 2516 
z
" transform="scale(0.015625)"/>
       </defs>
       <use xlink:href="#DejaVuSans-33"/>
       <use xlink:href="#DejaVuSans-2e" x="63.623047"/>
       <use xlink:href="#DejaVuSans-32" x="95.410156"/>
      </g>
     </g>
    </g>
    <g id="xtick_4">
     <g id="line2d_4">
      <g>
       <use xlink:href="#md43396c9d9" x="240.877821" y="451.318125" style="stroke: #000000; stroke-width: 2"/>
      </g>
     </g>
     <g id="text_4">
      <!-- 4.0 -->
      <g transform="translate(231.335946 463.93625) scale(0.12 -0.12)">
       <defs>
        <path id="DejaVuSans-30" d="M 2034 4250 
Q 1547 4250 1301 3770 
Q 1056 3291 1056 2328 
Q 1056 1369 1301 889 
Q 1547 409 2034 409 
Q 2525 409 2770 889 
Q 3016 1369 3016 2328 
Q 3016 3291 2770 3770 
Q 2525 4250 2034 4250 
z
M 2034 4750 
Q 2819 4750 3233 4129 
Q 3647 3509 3647 2328 
Q 3647 1150 3233 529 
Q 2819 -91 2034 -91 
Q 1250 -91 836 529 
Q 422 1150 422 2328 
Q 422 3509 836 4129 
Q 1250 4750 2034 4750 
z
" transform="scale(0.015625)"/>
       </defs>
       <use xlink:href="#DejaVuSans-34"/>
       <use xlink:href="#DejaVuSans-2e" x="63.623047"/>
       <use xlink:href="#DejaVuSans-30" x="95.410156"/>
      </g>
     </g>
    </g>
    <g id="xtick_5">
     <g id="line2d_5">
      <g>
       <use xlink:href="#md43396c9d9" x="310.609749" y="451.318125" style="stroke: #000000; stroke-width: 2"/>
      </g>
     </g>
     <g id="text_5">
      <!-- 4.8 -->
      <g transform="translate(301.067874 463.93625) scale(0.12 -0.12)">
       <defs>
        <path id="DejaVuSans-38" d="M 2034 2216 
Q 1584 2216 1326 1975 
Q 1069 1734 1069 1313 
Q 1069 891 1326 650 
Q 1584 409 2034 409 
Q 2484 409 2743 651 
Q 3003 894 3003 1313 
Q 3003 1734 2745 1975 
Q 2488 2216 2034 2216 
z
M 1403 2484 
Q 997 2584 770 2862 
Q 544 3141 544 3541 
Q 544 4100 942 4425 
Q 1341 4750 2034 4750 
Q 2731 4750 3128 4425 
Q 3525 4100 3525 3541 
Q 3525 3141 3298 2862 
Q 3072 2584 2669 2484 
Q 3125 2378 3379 2068 
Q 3634 1759 3634 1313 
Q 3634 634 3220 271 
Q 2806 -91 2034 -91 
Q 1263 -91 848 271 
Q 434 634 434 1313 
Q 434 1759 690 2068 
Q 947 2378 1403 2484 
z
M 1172 3481 
Q 1172 3119 1398 2916 
Q 1625 2713 2034 2713 
Q 2441 2713 2670 2916 
Q 2900 3119 2900 3481 
Q 2900 3844 2670 4047 
Q 2441 4250 2034 4250 
Q 1625 4250 1398 4047 
Q 1172 3844 1172 3481 
z
" transform="scale(0.015625)"/>
       </defs>
       <use xlink:href="#DejaVuSans-34"/>
       <use xlink:href="#DejaVuSans-2e" x="63.623047"/>
       <use xlink:href="#DejaVuSans-38" x="95.410156"/>
      </g>
     </g>
    </g>
    <g id="xtick_6">
     <g id="line2d_6">
      <g>
       <use xlink:href="#md43396c9d9" x="380.341677" y="451.318125" style="stroke: #000000; stroke-width: 2"/>
      </g>
     </g>
     <g id="text_6">
      <!-- 5.6 -->
      <g transform="translate(370.799802 463.93625) scale(0.12 -0.12)">
       <defs>
        <path id="DejaVuSans-35" d="M 691 4666 
L 3169 4666 
L 3169 4134 
L 1269 4134 
L 1269 2991 
Q 1406 3038 1543 3061 
Q 1681 3084 1819 3084 
Q 2600 3084 3056 2656 
Q 3513 2228 3513 1497 
Q 3513 744 3044 326 
Q 2575 -91 1722 -91 
Q 1428 -91 1123 -41 
Q 819 9 494 109 
L 494 744 
Q 775 591 1075 516 
Q 1375 441 1709 441 
Q 2250 441 2565 725 
Q 2881 1009 2881 1497 
Q 2881 1984 2565 2268 
Q 2250 2553 1709 2553 
Q 1456 2553 1204 2497 
Q 953 2441 691 2322 
L 691 4666 
z
" transform="scale(0.015625)"/>
       </defs>
       <use xlink:href="#DejaVuSans-35"/>
       <use xlink:href="#DejaVuSans-2e" x="63.623047"/>
       <use xlink:href="#DejaVuSans-36" x="95.410156"/>
      </g>
     </g>
    </g>
    <g id="xtick_7">
     <g id="line2d_7">
      <g>
       <use xlink:href="#md43396c9d9" x="450.073605" y="451.318125" style="stroke: #000000; stroke-width: 2"/>
      </g>
     </g>
     <g id="text_7">
      <!-- 6.4 -->
      <g transform="translate(440.53173 463.93625) scale(0.12 -0.12)">
       <use xlink:href="#DejaVuSans-36"/>
       <use xlink:href="#DejaVuSans-2e" x="63.623047"/>
       <use xlink:href="#DejaVuSans-34" x="95.410156"/>
      </g>
     </g>
    </g>
    <g id="xtick_8">
     <g id="line2d_8">
      <defs>
       <path id="me7d68cce6e" d="M 0 0 
L 0 -7 
" style="stroke: #000000; stroke-width: 2"/>
      </defs>
      <g>
       <use xlink:href="#me7d68cce6e" x="66.548002" y="451.318125" style="stroke: #000000; stroke-width: 2"/>
      </g>
     </g>
    </g>
    <g id="xtick_9">
     <g id="line2d_9">
      <g>
       <use xlink:href="#me7d68cce6e" x="136.27993" y="451.318125" style="stroke: #000000; stroke-width: 2"/>
      </g>
     </g>
    </g>
    <g id="xtick_10">
     <g id="line2d_10">
      <g>
       <use xlink:href="#me7d68cce6e" x="206.011857" y="451.318125" style="stroke: #000000; stroke-width: 2"/>
      </g>
     </g>
    </g>
    <g id="xtick_11">
     <g id="line2d_11">
      <g>
       <use xlink:href="#me7d68cce6e" x="275.743785" y="451.318125" style="stroke: #000000; stroke-width: 2"/>
      </g>
     </g>
    </g>
    <g id="xtick_12">
     <g id="line2d_12">
      <g>
       <use xlink:href="#me7d68cce6e" x="345.475713" y="451.318125" style="stroke: #000000; stroke-width: 2"/>
      </g>
     </g>
    </g>
    <g id="xtick_13">
     <g id="line2d_13">
      <g>
       <use xlink:href="#me7d68cce6e" x="415.207641" y="451.318125" style="stroke: #000000; stroke-width: 2"/>
      </g>
     </g>
    </g>
    <g id="text_8">
     <!-- hv (eV) -->
     <g transform="translate(208.66125 479.55) scale(0.12 -0.12)">
      <defs>
       <path id="DejaVuSans-68" d="M 3513 2113 
L 3513 0 
L 2938 0 
L 2938 2094 
Q 2938 2591 2744 2837 
Q 2550 3084 2163 3084 
Q 1697 3084 1428 2787 
Q 1159 2491 1159 1978 
L 1159 0 
L 581 0 
L 581 4863 
L 1159 4863 
L 1159 2956 
Q 1366 3272 1645 3428 
Q 1925 3584 2291 3584 
Q 2894 3584 3203 3211 
Q 3513 2838 3513 2113 
z
" transform="scale(0.015625)"/>
       <path id="DejaVuSans-76" d="M 191 3500 
L 800 3500 
L 1894 563 
L 2988 3500 
L 3597 3500 
L 2284 0 
L 1503 0 
L 191 3500 
z
" transform="scale(0.015625)"/>
       <path id="DejaVuSans-20" transform="scale(0.015625)"/>
       <path id="DejaVuSans-28" d="M 1984 4856 
Q 1566 4138 1362 3434 
Q 1159 2731 1159 2009 
Q 1159 1288 1364 580 
Q 1569 -128 1984 -844 
L 1484 -844 
Q 1016 -109 783 600 
Q 550 1309 550 2009 
Q 550 2706 781 3412 
Q 1013 4119 1484 4856 
L 1984 4856 
z
" transform="scale(0.015625)"/>
       <path id="DejaVuSans-65" d="M 3597 1894 
L 3597 1613 
L 953 1613 
Q 991 1019 1311 708 
Q 1631 397 2203 397 
Q 2534 397 2845 478 
Q 3156 559 3463 722 
L 3463 178 
Q 3153 47 2828 -22 
Q 2503 -91 2169 -91 
Q 1331 -91 842 396 
Q 353 884 353 1716 
Q 353 2575 817 3079 
Q 1281 3584 2069 3584 
Q 2775 3584 3186 3129 
Q 3597 2675 3597 1894 
z
M 3022 2063 
Q 3016 2534 2758 2815 
Q 2500 3097 2075 3097 
Q 1594 3097 1305 2825 
Q 1016 2553 972 2059 
L 3022 2063 
z
" transform="scale(0.015625)"/>
       <path id="DejaVuSans-56" d="M 1831 0 
L 50 4666 
L 709 4666 
L 2188 738 
L 3669 4666 
L 4325 4666 
L 2547 0 
L 1831 0 
z
" transform="scale(0.015625)"/>
       <path id="DejaVuSans-29" d="M 513 4856 
L 1013 4856 
Q 1481 4119 1714 3412 
Q 1947 2706 1947 2009 
Q 1947 1309 1714 600 
Q 1481 -109 1013 -844 
L 513 -844 
Q 928 -128 1133 580 
Q 1338 1288 1338 2009 
Q 1338 2731 1133 3434 
Q 928 4138 513 4856 
z
" transform="scale(0.015625)"/>
      </defs>
      <use xlink:href="#DejaVuSans-68"/>
      <use xlink:href="#DejaVuSans-76" x="63.378906"/>
      <use xlink:href="#DejaVuSans-20" x="122.558594"/>
      <use xlink:href="#DejaVuSans-28" x="154.345703"/>
      <use xlink:href="#DejaVuSans-65" x="193.359375"/>
      <use xlink:href="#DejaVuSans-56" x="254.882812"/>
      <use xlink:href="#DejaVuSans-29" x="323.291016"/>
     </g>
    </g>
   </g>
   <g id="matplotlib.axis_2">
    <g id="ytick_1">
     <g id="line2d_14">
      <defs>
       <path id="m214ff272fd" d="M 0 0 
L -10 0 
" style="stroke: #000000; stroke-width: 2"/>
      </defs>
      <g>
       <use xlink:href="#m214ff272fd" x="453.6" y="438.682909" style="stroke: #000000; stroke-width: 2"/>
      </g>
     </g>
     <g id="text_9">
      <!-- 0 -->
      <g transform="translate(457.1 443.241971) scale(0.12 -0.12)">
       <use xlink:href="#DejaVuSans-30"/>
      </g>
     </g>
    </g>
    <g id="ytick_2">
     <g id="line2d_15">
      <g>
       <use xlink:href="#m214ff272fd" x="453.6" y="378.455615" style="stroke: #000000; stroke-width: 2"/>
      </g>
     </g>
     <g id="text_10">
      <!-- 25000 -->
      <g transform="translate(457.1 383.014677) scale(0.12 -0.12)">
       <use xlink:href="#DejaVuSans-32"/>
       <use xlink:href="#DejaVuSans-35" x="63.623047"/>
       <use xlink:href="#DejaVuSans-30" x="127.246094"/>
       <use xlink:href="#DejaVuSans-30" x="190.869141"/>
       <use xlink:href="#DejaVuSans-30" x="254.492188"/>
      </g>
     </g>
    </g>
    <g id="ytick_3">
     <g id="line2d_16">
      <g>
       <use xlink:href="#m214ff272fd" x="453.6" y="318.228321" style="stroke: #000000; stroke-width: 2"/>
      </g>
     </g>
     <g id="text_11">
      <!-- 50000 -->
      <g transform="translate(457.1 322.787384) scale(0.12 -0.12)">
       <use xlink:href="#DejaVuSans-35"/>
       <use xlink:href="#DejaVuSans-30" x="63.623047"/>
       <use xlink:href="#DejaVuSans-30" x="127.246094"/>
       <use xlink:href="#DejaVuSans-30" x="190.869141"/>
       <use xlink:href="#DejaVuSans-30" x="254.492188"/>
      </g>
     </g>
    </g>
    <g id="ytick_4">
     <g id="line2d_17">
      <g>
       <use xlink:href="#m214ff272fd" x="453.6" y="258.001027" style="stroke: #000000; stroke-width: 2"/>
      </g>
     </g>
     <g id="text_12">
      <!-- 75000 -->
      <g transform="translate(457.1 262.56009) scale(0.12 -0.12)">
       <defs>
        <path id="DejaVuSans-37" d="M 525 4666 
L 3525 4666 
L 3525 4397 
L 1831 0 
L 1172 0 
L 2766 4134 
L 525 4134 
L 525 4666 
z
" transform="scale(0.015625)"/>
       </defs>
       <use xlink:href="#DejaVuSans-37"/>
       <use xlink:href="#DejaVuSans-35" x="63.623047"/>
       <use xlink:href="#DejaVuSans-30" x="127.246094"/>
       <use xlink:href="#DejaVuSans-30" x="190.869141"/>
       <use xlink:href="#DejaVuSans-30" x="254.492188"/>
      </g>
     </g>
    </g>
    <g id="ytick_5">
     <g id="line2d_18">
      <g>
       <use xlink:href="#m214ff272fd" x="453.6" y="197.773733" style="stroke: #000000; stroke-width: 2"/>
      </g>
     </g>
     <g id="text_13">
      <!-- 100000 -->
      <g transform="translate(457.1 202.332796) scale(0.12 -0.12)">
       <use xlink:href="#DejaVuSans-31"/>
       <use xlink:href="#DejaVuSans-30" x="63.623047"/>
       <use xlink:href="#DejaVuSans-30" x="127.246094"/>
       <use xlink:href="#DejaVuSans-30" x="190.869141"/>
       <use xlink:href="#DejaVuSans-30" x="254.492188"/>
       <use xlink:href="#DejaVuSans-30" x="318.115234"/>
      </g>
     </g>
    </g>
    <g id="ytick_6">
     <g id="line2d_19">
      <g>
       <use xlink:href="#m214ff272fd" x="453.6" y="137.546439" style="stroke: #000000; stroke-width: 2"/>
      </g>
     </g>
     <g id="text_14">
      <!-- 125000 -->
      <g transform="translate(457.1 142.105502) scale(0.12 -0.12)">
       <use xlink:href="#DejaVuSans-31"/>
       <use xlink:href="#DejaVuSans-32" x="63.623047"/>
       <use xlink:href="#DejaVuSans-35" x="127.246094"/>
       <use xlink:href="#DejaVuSans-30" x="190.869141"/>
       <use xlink:href="#DejaVuSans-30" x="254.492188"/>
       <use xlink:href="#DejaVuSans-30" x="318.115234"/>
      </g>
     </g>
    </g>
    <g id="ytick_7">
     <g id="line2d_20">
      <g>
       <use xlink:href="#m214ff272fd" x="453.6" y="77.319146" style="stroke: #000000; stroke-width: 2"/>
      </g>
     </g>
     <g id="text_15">
      <!-- 150000 -->
      <g transform="translate(457.1 81.878208) scale(0.12 -0.12)">
       <use xlink:href="#DejaVuSans-31"/>
       <use xlink:href="#DejaVuSans-35" x="63.623047"/>
       <use xlink:href="#DejaVuSans-30" x="127.246094"/>
       <use xlink:href="#DejaVuSans-30" x="190.869141"/>
       <use xlink:href="#DejaVuSans-30" x="254.492188"/>
       <use xlink:href="#DejaVuSans-30" x="318.115234"/>
      </g>
     </g>
    </g>
    <g id="ytick_8">
     <g id="line2d_21">
      <g>
       <use xlink:href="#m214ff272fd" x="453.6" y="17.091852" style="stroke: #000000; stroke-width: 2"/>
      </g>
     </g>
     <g id="text_16">
      <!-- 175000 -->
      <g transform="translate(457.1 21.650914) scale(0.12 -0.12)">
       <use xlink:href="#DejaVuSans-31"/>
       <use xlink:href="#DejaVuSans-37" x="63.623047"/>
       <use xlink:href="#DejaVuSans-35" x="127.246094"/>
       <use xlink:href="#DejaVuSans-30" x="190.869141"/>
       <use xlink:href="#DejaVuSans-30" x="254.492188"/>
       <use xlink:href="#DejaVuSans-30" x="318.115234"/>
      </g>
     </g>
    </g>
    <g id="ytick_9">
     <g id="line2d_22">
      <defs>
       <path id="me350de23be" d="M 0 0 
L -7 0 
" style="stroke: #000000; stroke-width: 2"/>
      </defs>
      <g>
       <use xlink:href="#me350de23be" x="453.6" y="423.626085" style="stroke: #000000; stroke-width: 2"/>
      </g>
     </g>
    </g>
    <g id="ytick_10">
     <g id="line2d_23">
      <g>
       <use xlink:href="#me350de23be" x="453.6" y="408.569262" style="stroke: #000000; stroke-width: 2"/>
      </g>
     </g>
    </g>
    <g id="ytick_11">
     <g id="line2d_24">
      <g>
       <use xlink:href="#me350de23be" x="453.6" y="393.512438" style="stroke: #000000; stroke-width: 2"/>
      </g>
     </g>
    </g>
    <g id="ytick_12">
     <g id="line2d_25">
      <g>
       <use xlink:href="#me350de23be" x="453.6" y="363.398792" style="stroke: #000000; stroke-width: 2"/>
      </g>
     </g>
    </g>
    <g id="ytick_13">
     <g id="line2d_26">
      <g>
       <use xlink:href="#me350de23be" x="453.6" y="348.341968" style="stroke: #000000; stroke-width: 2"/>
      </g>
     </g>
    </g>
    <g id="ytick_14">
     <g id="line2d_27">
      <g>
       <use xlink:href="#me350de23be" x="453.6" y="333.285145" style="stroke: #000000; stroke-width: 2"/>
      </g>
     </g>
    </g>
    <g id="ytick_15">
     <g id="line2d_28">
      <g>
       <use xlink:href="#me350de23be" x="453.6" y="303.171498" style="stroke: #000000; stroke-width: 2"/>
      </g>
     </g>
    </g>
    <g id="ytick_16">
     <g id="line2d_29">
      <g>
       <use xlink:href="#me350de23be" x="453.6" y="288.114674" style="stroke: #000000; stroke-width: 2"/>
      </g>
     </g>
    </g>
    <g id="ytick_17">
     <g id="line2d_30">
      <g>
       <use xlink:href="#me350de23be" x="453.6" y="273.057851" style="stroke: #000000; stroke-width: 2"/>
      </g>
     </g>
    </g>
    <g id="ytick_18">
     <g id="line2d_31">
      <g>
       <use xlink:href="#me350de23be" x="453.6" y="242.944204" style="stroke: #000000; stroke-width: 2"/>
      </g>
     </g>
    </g>
    <g id="ytick_19">
     <g id="line2d_32">
      <g>
       <use xlink:href="#me350de23be" x="453.6" y="227.88738" style="stroke: #000000; stroke-width: 2"/>
      </g>
     </g>
    </g>
    <g id="ytick_20">
     <g id="line2d_33">
      <g>
       <use xlink:href="#me350de23be" x="453.6" y="212.830557" style="stroke: #000000; stroke-width: 2"/>
      </g>
     </g>
    </g>
    <g id="ytick_21">
     <g id="line2d_34">
      <g>
       <use xlink:href="#me350de23be" x="453.6" y="182.71691" style="stroke: #000000; stroke-width: 2"/>
      </g>
     </g>
    </g>
    <g id="ytick_22">
     <g id="line2d_35">
      <g>
       <use xlink:href="#me350de23be" x="453.6" y="167.660086" style="stroke: #000000; stroke-width: 2"/>
      </g>
     </g>
    </g>
    <g id="ytick_23">
     <g id="line2d_36">
      <g>
       <use xlink:href="#me350de23be" x="453.6" y="152.603263" style="stroke: #000000; stroke-width: 2"/>
      </g>
     </g>
    </g>
    <g id="ytick_24">
     <g id="line2d_37">
      <g>
       <use xlink:href="#me350de23be" x="453.6" y="122.489616" style="stroke: #000000; stroke-width: 2"/>
      </g>
     </g>
    </g>
    <g id="ytick_25">
     <g id="line2d_38">
      <g>
       <use xlink:href="#me350de23be" x="453.6" y="107.432793" style="stroke: #000000; stroke-width: 2"/>
      </g>
     </g>
    </g>
    <g id="ytick_26">
     <g id="line2d_39">
      <g>
       <use xlink:href="#me350de23be" x="453.6" y="92.375969" style="stroke: #000000; stroke-width: 2"/>
      </g>
     </g>
    </g>
    <g id="ytick_27">
     <g id="line2d_40">
      <g>
       <use xlink:href="#me350de23be" x="453.6" y="62.262322" style="stroke: #000000; stroke-width: 2"/>
      </g>
     </g>
    </g>
    <g id="ytick_28">
     <g id="line2d_41">
      <g>
       <use xlink:href="#me350de23be" x="453.6" y="47.205499" style="stroke: #000000; stroke-width: 2"/>
      </g>
     </g>
    </g>
    <g id="ytick_29">
     <g id="line2d_42">
      <g>
       <use xlink:href="#me350de23be" x="453.6" y="32.148675" style="stroke: #000000; stroke-width: 2"/>
      </g>
     </g>
    </g>
    <g id="text_17">
     <!-- $\alpha \, (cm^{-1})$ -->
     <g transform="translate(516.894375 259.318125) rotate(-90) scale(0.12 -0.12)">
      <defs>
       <path id="DejaVuSans-Oblique-3b1" d="M 2619 1628 
L 2622 2350 
Q 2625 3088 2069 3091 
Q 1653 3094 1394 2747 
Q 1069 2319 959 1747 
Q 825 1059 994 731 
Q 1169 397 1547 397 
Q 1966 397 2319 1063 
L 2619 1628 
z
M 2166 3578 
Q 3141 3594 3128 2584 
Q 3128 2584 3616 3500 
L 4128 3500 
L 3119 1603 
L 3109 919 
Q 3109 766 3194 638 
Q 3291 488 3391 488 
L 3669 488 
L 3575 0 
L 3228 0 
Q 2934 0 2722 263 
Q 2622 394 2619 669 
Q 2416 334 2066 50 
Q 1900 -81 1453 -78 
Q 722 -72 456 397 
Q 184 884 353 1747 
Q 534 2675 1009 3097 
Q 1544 3569 2166 3578 
z
" transform="scale(0.015625)"/>
       <path id="DejaVuSans-Oblique-63" d="M 3431 3366 
L 3316 2797 
Q 3109 2947 2876 3022 
Q 2644 3097 2394 3097 
Q 2119 3097 1870 3000 
Q 1622 2903 1453 2725 
Q 1184 2453 1037 2087 
Q 891 1722 891 1331 
Q 891 859 1127 628 
Q 1363 397 1844 397 
Q 2081 397 2348 469 
Q 2616 541 2906 684 
L 2797 116 
Q 2547 13 2283 -39 
Q 2019 -91 1741 -91 
Q 1044 -91 669 257 
Q 294 606 294 1253 
Q 294 1797 489 2255 
Q 684 2713 1069 3078 
Q 1331 3328 1684 3456 
Q 2038 3584 2456 3584 
Q 2700 3584 2940 3529 
Q 3181 3475 3431 3366 
z
" transform="scale(0.015625)"/>
       <path id="DejaVuSans-Oblique-6d" d="M 5747 2113 
L 5338 0 
L 4763 0 
L 5166 2094 
Q 5191 2228 5203 2325 
Q 5216 2422 5216 2491 
Q 5216 2772 5059 2928 
Q 4903 3084 4622 3084 
Q 4203 3084 3875 2770 
Q 3547 2456 3450 1953 
L 3066 0 
L 2491 0 
L 2900 2094 
Q 2925 2209 2937 2307 
Q 2950 2406 2950 2484 
Q 2950 2769 2794 2926 
Q 2638 3084 2363 3084 
Q 1938 3084 1609 2770 
Q 1281 2456 1184 1953 
L 800 0 
L 225 0 
L 909 3500 
L 1484 3500 
L 1375 2956 
Q 1609 3263 1923 3423 
Q 2238 3584 2597 3584 
Q 2978 3584 3223 3384 
Q 3469 3184 3519 2828 
Q 3781 3197 4126 3390 
Q 4472 3584 4856 3584 
Q 5306 3584 5551 3325 
Q 5797 3066 5797 2591 
Q 5797 2488 5784 2364 
Q 5772 2241 5747 2113 
z
" transform="scale(0.015625)"/>
       <path id="DejaVuSans-2212" d="M 678 2272 
L 4684 2272 
L 4684 1741 
L 678 1741 
L 678 2272 
z
" transform="scale(0.015625)"/>
      </defs>
      <use xlink:href="#DejaVuSans-Oblique-3b1" transform="translate(0 0.684375)"/>
      <use xlink:href="#DejaVuSans-28" transform="translate(82.153645 0.684375)"/>
      <use xlink:href="#DejaVuSans-Oblique-63" transform="translate(121.167317 0.684375)"/>
      <use xlink:href="#DejaVuSans-Oblique-6d" transform="translate(176.147786 0.684375)"/>
      <use xlink:href="#DejaVuSans-2212" transform="translate(278.209791 38.965625) scale(0.7)"/>
      <use xlink:href="#DejaVuSans-31" transform="translate(336.862135 38.965625) scale(0.7)"/>
      <use xlink:href="#DejaVuSans-29" transform="translate(384.132642 0.684375)"/>
     </g>
    </g>
   </g>
   <g id="line2d_43">
    <path d="M 433.309091 56.168317 
L 430.88509 50.312813 
L 429.601148 47.333703 
L 427.368918 42.382751 
L 424.99773 38.315162 
L 422.647462 36.205398 
L 420.008768 36.837797 
L 417.396197 40.192251 
L 413.902437 47.44554 
L 408.822067 58.809803 
L 406.758795 62.897666 
L 404.566358 66.728436 
L 402.104074 70.359469 
L 399.665344 73.303177 
L 397.249831 75.648186 
L 394.717169 77.617102 
L 391.51772 79.67536 
L 387.54124 82.216083 
L 385.779168 83.587549 
L 383.761522 85.604004 
L 381.760305 88.417926 
L 379.511868 93.517808 
L 377.28399 101.796328 
L 375.464506 111.647519 
L 375.205693 113.412626 
L 373.787165 124.590821 
L 373.016928 130.746934 
L 371.738661 143.619493 
L 370.847911 152.363835 
L 369.707512 165.584865 
L 368.446759 179.936864 
L 367.31776 193.095505 
L 366.443343 203.424097 
L 365.199746 217.947762 
L 364.333101 228.006334 
L 363.100532 241.767197 
L 362.119102 252.646398 
L 360.898051 265.165837 
L 360.047085 274.049794 
L 358.474889 288.945451 
L 357.1528 301.051995 
L 353.702966 329.018713 
L 351.587321 343.850726 
L 349.490986 356.899716 
L 347.528607 367.648131 
L 345.81103 375.878912 
L 344.21961 382.526517 
L 342.639316 388.223262 
L 340.958362 393.296263 
L 339.068383 397.782926 
L 337.304066 400.937696 
L 335.44468 403.27 
L 333.600765 404.760505 
L 331.665034 405.644671 
L 329.640097 406.083163 
L 326.480549 406.357471 
L 323.572542 406.709451 
L 322.338141 407.003523 
L 320.703222 407.52736 
L 318.878731 408.313749 
L 316.969661 409.34041 
L 314.879414 410.645255 
L 307.483653 415.529177 
L 305.201626 416.750517 
L 302.290868 417.908367 
L 300.897116 418.291233 
L 299.32894 418.593606 
L 297.863964 418.744847 
L 294.875504 418.900418 
L 292.196678 418.777182 
L 288.331585 418.385494 
L 281.408219 417.654445 
L 277.171874 417.515404 
L 274.966225 417.662157 
L 247.451184 419.570502 
L 239.851275 420.020458 
L 207.080509 421.348348 
L 152.545778 422.623156 
L 133.722716 422.929671 
L 95.345635 423.67745 
L 66.107345 424.235679 
L 27.490909 424.68562 
L 27.490909 424.68562 
" clip-path="url(#pd892c7d47d)" style="fill: none; stroke: #0000ff; stroke-width: 1.5; stroke-linecap: square"/>
   </g>
   <g id="line2d_44">
    <path d="M 433.309091 263.951218 
L 431.207034 260.090006 
L 427.686672 253.379252 
L 425.62799 249.923129 
L 424.99773 248.98838 
L 422.179895 245.781441 
L 419.700058 244.1228 
L 417.090535 243.31078 
L 413.751588 242.968909 
L 407.788367 242.558606 
L 405.587166 242.234459 
L 396.825949 240.98297 
L 387.813446 240.353503 
L 383.359971 239.858843 
L 380.567378 239.834863 
L 378.06797 240.030291 
L 375.076391 240.44311 
L 371.356506 241.213071 
L 370.213685 241.591359 
L 368.572534 242.276141 
L 366.568063 243.589666 
L 364.456713 245.857179 
L 362.364076 249.289424 
L 360.047085 254.642957 
L 357.632692 261.58654 
L 355.480946 268.481635 
L 352.290377 279.064166 
L 350.07138 286.363935 
L 347.184052 295.446297 
L 344.900278 302.435372 
L 343.31523 307.238804 
L 341.293548 313.242946 
L 337.96405 323.019922 
L 333.600765 335.327698 
L 330.490423 344.036285 
L 329.640097 346.57886 
L 326.480549 356.201677 
L 321.416967 373.920687 
L 319.28283 381.985701 
L 316.669789 391.429256 
L 313.989878 400.273178 
L 312.221992 405.258538 
L 310.760036 408.813758 
L 309.404696 411.642156 
L 307.962253 414.175618 
L 306.339496 416.470344 
L 304.729357 418.25973 
L 302.944544 419.811125 
L 300.897116 421.245394 
L 298.320635 422.801858 
L 294.516255 424.886668 
L 291.842191 426.004039 
L 290.518446 426.375745 
L 289.116083 426.621979 
L 288.070775 426.873226 
L 286.858186 427.166153 
L 282.418592 427.043393 
L 280.152588 427.004072 
L 279.985782 427.143547 
L 277.91275 427.092838 
L 252.561089 428.488728 
L 228.633818 428.903067 
L 173.231378 429.518492 
L 92.059705 430.572528 
L 61.934921 431.175733 
L 48.657094 431.392118 
L 30.593987 431.550852 
L 27.490909 431.550852 
L 27.490909 431.550852 
" clip-path="url(#pd892c7d47d)" style="fill: none; stroke: #008000; stroke-width: 1.5; stroke-linecap: square"/>
   </g>
   <g id="patch_3">
    <path d="M 453.6 451.318125 
L 453.6 16.438125 
" style="fill: none; stroke: #000000; stroke-width: 0.8; stroke-linejoin: miter; stroke-linecap: square"/>
   </g>
   <g id="patch_4">
    <path d="M 7.2 451.318125 
L 453.6 451.318125 
" style="fill: none; stroke: #000000; stroke-width: 0.8; stroke-linejoin: miter; stroke-linecap: square"/>
   </g>
   <g id="legend_1">
    <g id="patch_5">
     <path d="M 307.310313 53.856875 
L 379.64 53.856875 
Q 381.64 53.856875 381.64 51.856875 
L 381.64 23.438125 
Q 381.64 21.438125 379.64 21.438125 
L 307.310313 21.438125 
Q 305.310313 21.438125 305.310313 23.438125 
L 305.310313 51.856875 
Q 305.310313 53.856875 307.310313 53.856875 
z
" style="fill: #ffffff; opacity: 0.8; stroke: #cccccc; stroke-linejoin: miter"/>
    </g>
    <g id="line2d_45">
     <path d="M 309.310313 29.536562 
L 319.310313 29.536562 
L 329.310313 29.536562 
" style="fill: none; stroke: #0000ff; stroke-width: 1.5; stroke-linecap: square"/>
    </g>
    <g id="text_18">
     <!-- α-Ga₂O₃ -->
     <g transform="translate(337.310313 33.036562) scale(0.1 -0.1)">
      <defs>
       <path id="DejaVuSans-3b1" d="M 2644 1628 
L 2506 2350 
Q 2366 3091 1809 3091 
Q 1391 3091 1200 2747 
Q 959 2316 959 1747 
Q 959 1059 1194 731 
Q 1431 397 1809 397 
Q 2228 397 2453 1063 
L 2644 1628 
z
M 2966 2584 
L 3275 3500 
L 3788 3500 
L 3147 1603 
L 3272 919 
Q 3300 766 3409 638 
Q 3538 488 3638 488 
L 3913 488 
L 3913 0 
L 3569 0 
Q 3275 0 3013 263 
Q 2884 394 2831 669 
Q 2688 322 2394 50 
Q 2256 -78 1809 -78 
Q 1075 -78 719 397 
Q 353 888 353 1747 
Q 353 2666 750 3097 
Q 1191 3578 1809 3578 
Q 2781 3578 2966 2584 
z
" transform="scale(0.015625)"/>
       <path id="DejaVuSans-2d" d="M 313 2009 
L 1997 2009 
L 1997 1497 
L 313 1497 
L 313 2009 
z
" transform="scale(0.015625)"/>
       <path id="DejaVuSans-47" d="M 3809 666 
L 3809 1919 
L 2778 1919 
L 2778 2438 
L 4434 2438 
L 4434 434 
Q 4069 175 3628 42 
Q 3188 -91 2688 -91 
Q 1594 -91 976 548 
Q 359 1188 359 2328 
Q 359 3472 976 4111 
Q 1594 4750 2688 4750 
Q 3144 4750 3555 4637 
Q 3966 4525 4313 4306 
L 4313 3634 
Q 3963 3931 3569 4081 
Q 3175 4231 2741 4231 
Q 1884 4231 1454 3753 
Q 1025 3275 1025 2328 
Q 1025 1384 1454 906 
Q 1884 428 2741 428 
Q 3075 428 3337 486 
Q 3600 544 3809 666 
z
" transform="scale(0.015625)"/>
       <path id="DejaVuSans-61" d="M 2194 1759 
Q 1497 1759 1228 1600 
Q 959 1441 959 1056 
Q 959 750 1161 570 
Q 1363 391 1709 391 
Q 2188 391 2477 730 
Q 2766 1069 2766 1631 
L 2766 1759 
L 2194 1759 
z
M 3341 1997 
L 3341 0 
L 2766 0 
L 2766 531 
Q 2569 213 2275 61 
Q 1981 -91 1556 -91 
Q 1019 -91 701 211 
Q 384 513 384 1019 
Q 384 1609 779 1909 
Q 1175 2209 1959 2209 
L 2766 2209 
L 2766 2266 
Q 2766 2663 2505 2880 
Q 2244 3097 1772 3097 
Q 1472 3097 1187 3025 
Q 903 2953 641 2809 
L 641 3341 
Q 956 3463 1253 3523 
Q 1550 3584 1831 3584 
Q 2591 3584 2966 3190 
Q 3341 2797 3341 1997 
z
" transform="scale(0.015625)"/>
       <path id="DejaVuSans-2082" d="M 838 356 
L 2163 356 
L 2163 0 
L 294 0 
L 294 343 
Q 400 440 597 615 
Q 1672 1568 1672 1862 
Q 1672 2068 1509 2194 
Q 1347 2321 1081 2321 
Q 919 2321 728 2266 
Q 538 2212 313 2103 
L 313 2487 
Q 553 2575 761 2618 
Q 969 2662 1147 2662 
Q 1600 2662 1872 2456 
Q 2144 2250 2144 1912 
Q 2144 1478 1109 590 
Q 934 440 838 356 
z
" transform="scale(0.015625)"/>
       <path id="DejaVuSans-4f" d="M 2522 4238 
Q 1834 4238 1429 3725 
Q 1025 3213 1025 2328 
Q 1025 1447 1429 934 
Q 1834 422 2522 422 
Q 3209 422 3611 934 
Q 4013 1447 4013 2328 
Q 4013 3213 3611 3725 
Q 3209 4238 2522 4238 
z
M 2522 4750 
Q 3503 4750 4090 4092 
Q 4678 3434 4678 2328 
Q 4678 1225 4090 567 
Q 3503 -91 2522 -91 
Q 1538 -91 948 565 
Q 359 1222 359 2328 
Q 359 3434 948 4092 
Q 1538 4750 2522 4750 
z
" transform="scale(0.015625)"/>
       <path id="DejaVuSans-2083" d="M 1638 1412 
Q 1925 1356 2083 1185 
Q 2241 1015 2241 759 
Q 2241 371 1944 162 
Q 1647 -47 1094 -47 
Q 916 -47 720 -14 
Q 525 18 306 81 
L 306 459 
Q 469 375 655 334 
Q 841 293 1050 293 
Q 1391 293 1578 416 
Q 1766 540 1766 759 
Q 1766 990 1592 1109 
Q 1419 1228 1081 1228 
L 813 1228 
L 813 1565 
L 1106 1565 
Q 1400 1565 1551 1663 
Q 1703 1762 1703 1950 
Q 1703 2131 1547 2226 
Q 1391 2321 1094 2321 
Q 969 2321 809 2293 
Q 650 2265 397 2193 
L 397 2553 
Q 625 2606 825 2634 
Q 1025 2662 1197 2662 
Q 1647 2662 1911 2477 
Q 2175 2293 2175 1984 
Q 2175 1768 2034 1618 
Q 1894 1468 1638 1412 
z
" transform="scale(0.015625)"/>
      </defs>
      <use xlink:href="#DejaVuSans-3b1"/>
      <use xlink:href="#DejaVuSans-2d" x="65.917969"/>
      <use xlink:href="#DejaVuSans-47" x="105.626953"/>
      <use xlink:href="#DejaVuSans-61" x="183.117188"/>
      <use xlink:href="#DejaVuSans-2082" x="244.396484"/>
      <use xlink:href="#DejaVuSans-4f" x="284.484375"/>
      <use xlink:href="#DejaVuSans-2083" x="363.195312"/>
     </g>
    </g>
    <g id="line2d_46">
     <path d="M 309.310313 44.277187 
L 319.310313 44.277187 
L 329.310313 44.277187 
" style="fill: none; stroke: #008000; stroke-width: 1.5; stroke-linecap: square"/>
    </g>
    <g id="text_19">
     <!-- β-Ga₂O₃ -->
     <g transform="translate(337.310313 47.777187) scale(0.1 -0.1)">
      <defs>
       <path id="DejaVuSans-3b2" d="M 1178 216 
L 1178 -1331 
L 600 -1331 
L 600 3478 
Q 600 4903 1931 4903 
Q 3288 4903 3288 3700 
Q 3288 2844 2750 2531 
Q 3625 2250 3625 1416 
Q 3625 -66 2119 -66 
Q 1456 -66 1178 216 
z
M 1178 966 
Q 1525 425 2141 425 
Q 3041 425 3041 1406 
Q 3041 2288 1591 2219 
L 1591 2750 
Q 2725 2750 2725 3750 
Q 2725 4434 1994 4434 
Q 1178 4434 1178 3459 
L 1178 966 
z
" transform="scale(0.015625)"/>
      </defs>
      <use xlink:href="#DejaVuSans-3b2"/>
      <use xlink:href="#DejaVuSans-2d" x="63.818359"/>
      <use xlink:href="#DejaVuSans-47" x="103.527344"/>
      <use xlink:href="#DejaVuSans-61" x="181.017578"/>
      <use xlink:href="#DejaVuSans-2082" x="242.296875"/>
      <use xlink:href="#DejaVuSans-4f" x="282.384766"/>
      <use xlink:href="#DejaVuSans-2083" x="361.095703"/>
     </g>
    </g>
   </g>
  </g>
  <g id="axes_2">
   <g id="patch_6">
    <path d="M 79.2 192.118125 
L 252 192.118125 
L 252 19.318125 
L 79.2 19.318125 
z
" style="fill: #ffffff"/>
   </g>
   <g id="matplotlib.axis_3">
    <g id="xtick_14">
     <g id="line2d_47">
      <defs>
       <path id="m98a4fd4951" d="M 0 0 
L 0 -5 
" style="stroke: #000000; stroke-width: 2"/>
      </defs>
      <g>
       <use xlink:href="#m98a4fd4951" x="102.24" y="192.118125" style="stroke: #000000; stroke-width: 2"/>
      </g>
     </g>
     <g id="text_20">
      <!-- 5.1 -->
      <g transform="translate(92.698125 204.73625) scale(0.12 -0.12)">
       <use xlink:href="#DejaVuSans-35"/>
       <use xlink:href="#DejaVuSans-2e" x="63.623047"/>
       <use xlink:href="#DejaVuSans-31" x="95.410156"/>
      </g>
     </g>
    </g>
    <g id="xtick_15">
     <g id="line2d_48">
      <g>
       <use xlink:href="#m98a4fd4951" x="171.36" y="192.118125" style="stroke: #000000; stroke-width: 2"/>
      </g>
     </g>
     <g id="text_21">
      <!-- 5.4 -->
      <g transform="translate(161.818125 204.73625) scale(0.12 -0.12)">
       <use xlink:href="#DejaVuSans-35"/>
       <use xlink:href="#DejaVuSans-2e" x="63.623047"/>
       <use xlink:href="#DejaVuSans-34" x="95.410156"/>
      </g>
     </g>
    </g>
    <g id="xtick_16">
     <g id="line2d_49">
      <g>
       <use xlink:href="#m98a4fd4951" x="240.48" y="192.118125" style="stroke: #000000; stroke-width: 2"/>
      </g>
     </g>
     <g id="text_22">
      <!-- 5.7 -->
      <g transform="translate(230.938125 204.73625) scale(0.12 -0.12)">
       <use xlink:href="#DejaVuSans-35"/>
       <use xlink:href="#DejaVuSans-2e" x="63.623047"/>
       <use xlink:href="#DejaVuSans-37" x="95.410156"/>
      </g>
     </g>
    </g>
    <g id="xtick_17">
     <g id="line2d_50">
      <defs>
       <path id="mef771845a0" d="M 0 0 
L 0 -3.5 
" style="stroke: #000000; stroke-width: 2"/>
      </defs>
      <g>
       <use xlink:href="#mef771845a0" x="136.8" y="192.118125" style="stroke: #000000; stroke-width: 2"/>
      </g>
     </g>
    </g>
    <g id="xtick_18">
     <g id="line2d_51">
      <g>
       <use xlink:href="#mef771845a0" x="205.92" y="192.118125" style="stroke: #000000; stroke-width: 2"/>
      </g>
     </g>
    </g>
   </g>
   <g id="matplotlib.axis_4">
    <g id="ytick_30">
     <g id="line2d_52">
      <defs>
       <path id="m0d19fcf424" d="M 0 0 
L 5 0 
" style="stroke: #000000; stroke-width: 2"/>
      </defs>
      <g>
       <use xlink:href="#m0d19fcf424" x="79.2" y="192.118125" style="stroke: #000000; stroke-width: 2"/>
      </g>
     </g>
     <g id="text_23">
      <!-- 0.00 -->
      <g transform="translate(48.98125 196.677187) scale(0.12 -0.12)">
       <use xlink:href="#DejaVuSans-30"/>
       <use xlink:href="#DejaVuSans-2e" x="63.623047"/>
       <use xlink:href="#DejaVuSans-30" x="95.410156"/>
       <use xlink:href="#DejaVuSans-30" x="159.033203"/>
      </g>
     </g>
    </g>
    <g id="ytick_31">
     <g id="line2d_53">
      <g>
       <use xlink:href="#m0d19fcf424" x="79.2" y="135.641379" style="stroke: #000000; stroke-width: 2"/>
      </g>
     </g>
     <g id="text_24">
      <!-- 1.25 -->
      <g transform="translate(48.98125 140.200442) scale(0.12 -0.12)">
       <use xlink:href="#DejaVuSans-31"/>
       <use xlink:href="#DejaVuSans-2e" x="63.623047"/>
       <use xlink:href="#DejaVuSans-32" x="95.410156"/>
       <use xlink:href="#DejaVuSans-35" x="159.033203"/>
      </g>
     </g>
    </g>
    <g id="ytick_32">
     <g id="line2d_54">
      <g>
       <use xlink:href="#m0d19fcf424" x="79.2" y="79.164633" style="stroke: #000000; stroke-width: 2"/>
      </g>
     </g>
     <g id="text_25">
      <!-- 2.50 -->
      <g transform="translate(48.98125 83.723696) scale(0.12 -0.12)">
       <use xlink:href="#DejaVuSans-32"/>
       <use xlink:href="#DejaVuSans-2e" x="63.623047"/>
       <use xlink:href="#DejaVuSans-35" x="95.410156"/>
       <use xlink:href="#DejaVuSans-30" x="159.033203"/>
      </g>
     </g>
    </g>
    <g id="ytick_33">
     <g id="line2d_55">
      <g>
       <use xlink:href="#m0d19fcf424" x="79.2" y="22.687887" style="stroke: #000000; stroke-width: 2"/>
      </g>
     </g>
     <g id="text_26">
      <!-- 3.75 -->
      <g transform="translate(48.98125 27.24695) scale(0.12 -0.12)">
       <use xlink:href="#DejaVuSans-33"/>
       <use xlink:href="#DejaVuSans-2e" x="63.623047"/>
       <use xlink:href="#DejaVuSans-37" x="95.410156"/>
       <use xlink:href="#DejaVuSans-35" x="159.033203"/>
      </g>
     </g>
    </g>
    <g id="ytick_34">
     <g id="line2d_56">
      <defs>
       <path id="m3ca38de964" d="M 0 0 
L 3.5 0 
" style="stroke: #000000; stroke-width: 2"/>
      </defs>
      <g>
       <use xlink:href="#m3ca38de964" x="79.2" y="177.998939" style="stroke: #000000; stroke-width: 2"/>
      </g>
     </g>
    </g>
    <g id="ytick_35">
     <g id="line2d_57">
      <g>
       <use xlink:href="#m3ca38de964" x="79.2" y="163.879752" style="stroke: #000000; stroke-width: 2"/>
      </g>
     </g>
    </g>
    <g id="ytick_36">
     <g id="line2d_58">
      <g>
       <use xlink:href="#m3ca38de964" x="79.2" y="149.760566" style="stroke: #000000; stroke-width: 2"/>
      </g>
     </g>
    </g>
    <g id="ytick_37">
     <g id="line2d_59">
      <g>
       <use xlink:href="#m3ca38de964" x="79.2" y="121.522193" style="stroke: #000000; stroke-width: 2"/>
      </g>
     </g>
    </g>
    <g id="ytick_38">
     <g id="line2d_60">
      <g>
       <use xlink:href="#m3ca38de964" x="79.2" y="107.403006" style="stroke: #000000; stroke-width: 2"/>
      </g>
     </g>
    </g>
    <g id="ytick_39">
     <g id="line2d_61">
      <g>
       <use xlink:href="#m3ca38de964" x="79.2" y="93.28382" style="stroke: #000000; stroke-width: 2"/>
      </g>
     </g>
    </g>
    <g id="ytick_40">
     <g id="line2d_62">
      <g>
       <use xlink:href="#m3ca38de964" x="79.2" y="65.045447" style="stroke: #000000; stroke-width: 2"/>
      </g>
     </g>
    </g>
    <g id="ytick_41">
     <g id="line2d_63">
      <g>
       <use xlink:href="#m3ca38de964" x="79.2" y="50.92626" style="stroke: #000000; stroke-width: 2"/>
      </g>
     </g>
    </g>
    <g id="ytick_42">
     <g id="line2d_64">
      <g>
       <use xlink:href="#m3ca38de964" x="79.2" y="36.807074" style="stroke: #000000; stroke-width: 2"/>
      </g>
     </g>
    </g>
    <g id="text_27">
     <!-- $\alpha hv^{2} \, (eV cm^{-1})^{2} \times 10^{11}$ -->
     <g transform="translate(42.901562 161.668125) rotate(-90) scale(0.1 -0.1)">
      <defs>
       <path id="DejaVuSans-Oblique-68" d="M 3566 2113 
L 3156 0 
L 2578 0 
L 2988 2091 
Q 3016 2238 3031 2350 
Q 3047 2463 3047 2528 
Q 3047 2791 2881 2937 
Q 2716 3084 2419 3084 
Q 1956 3084 1617 2771 
Q 1278 2459 1178 1941 
L 800 0 
L 225 0 
L 1172 4863 
L 1747 4863 
L 1375 2950 
Q 1594 3244 1934 3414 
Q 2275 3584 2650 3584 
Q 3113 3584 3367 3334 
Q 3622 3084 3622 2631 
Q 3622 2519 3608 2391 
Q 3594 2263 3566 2113 
z
" transform="scale(0.015625)"/>
       <path id="DejaVuSans-Oblique-76" d="M 459 3500 
L 1069 3500 
L 1581 525 
L 3256 3500 
L 3866 3500 
L 1875 0 
L 1100 0 
L 459 3500 
z
" transform="scale(0.015625)"/>
       <path id="DejaVuSans-Oblique-65" d="M 3078 2063 
Q 3088 2113 3092 2166 
Q 3097 2219 3097 2272 
Q 3097 2653 2873 2875 
Q 2650 3097 2266 3097 
Q 1838 3097 1509 2826 
Q 1181 2556 1013 2059 
L 3078 2063 
z
M 3578 1613 
L 903 1613 
Q 884 1494 878 1425 
Q 872 1356 872 1306 
Q 872 872 1139 634 
Q 1406 397 1894 397 
Q 2269 397 2603 481 
Q 2938 566 3225 728 
L 3116 159 
Q 2806 34 2476 -28 
Q 2147 -91 1806 -91 
Q 1078 -91 686 257 
Q 294 606 294 1247 
Q 294 1794 489 2264 
Q 684 2734 1063 3103 
Q 1306 3334 1642 3459 
Q 1978 3584 2356 3584 
Q 2950 3584 3301 3228 
Q 3653 2872 3653 2272 
Q 3653 2128 3634 1964 
Q 3616 1800 3578 1613 
z
" transform="scale(0.015625)"/>
       <path id="DejaVuSans-Oblique-56" d="M 1319 0 
L 500 4666 
L 1119 4666 
L 1797 653 
L 4063 4666 
L 4750 4666 
L 2053 0 
L 1319 0 
z
" transform="scale(0.015625)"/>
       <path id="DejaVuSans-d7" d="M 4488 3438 
L 3059 2003 
L 4488 575 
L 4116 197 
L 2681 1631 
L 1247 197 
L 878 575 
L 2303 2003 
L 878 3438 
L 1247 3816 
L 2681 2381 
L 4116 3816 
L 4488 3438 
z
" transform="scale(0.015625)"/>
      </defs>
      <use xlink:href="#DejaVuSans-Oblique-3b1" transform="translate(0 0.765625)"/>
      <use xlink:href="#DejaVuSans-Oblique-68" transform="translate(65.917969 0.765625)"/>
      <use xlink:href="#DejaVuSans-Oblique-76" transform="translate(129.296875 0.765625)"/>
      <use xlink:href="#DejaVuSans-32" transform="translate(192.942708 39.046875) scale(0.7)"/>
      <use xlink:href="#DejaVuSans-28" transform="translate(256.448892 0.765625)"/>
      <use xlink:href="#DejaVuSans-Oblique-65" transform="translate(295.462564 0.765625)"/>
      <use xlink:href="#DejaVuSans-Oblique-56" transform="translate(356.986002 0.765625)"/>
      <use xlink:href="#DejaVuSans-Oblique-63" transform="translate(425.394205 0.765625)"/>
      <use xlink:href="#DejaVuSans-Oblique-6d" transform="translate(480.374674 0.765625)"/>
      <use xlink:href="#DejaVuSans-2212" transform="translate(582.436679 39.046875) scale(0.7)"/>
      <use xlink:href="#DejaVuSans-31" transform="translate(641.089023 39.046875) scale(0.7)"/>
      <use xlink:href="#DejaVuSans-29" transform="translate(688.35953 0.765625)"/>
      <use xlink:href="#DejaVuSans-32" transform="translate(728.330234 39.046875) scale(0.7)"/>
      <use xlink:href="#DejaVuSans-d7" transform="translate(795.083163 0.765625)"/>
      <use xlink:href="#DejaVuSans-31" transform="translate(898.354648 0.765625)"/>
      <use xlink:href="#DejaVuSans-30" transform="translate(961.977694 0.765625)"/>
      <use xlink:href="#DejaVuSans-31" transform="translate(1026.557773 39.046875) scale(0.7)"/>
      <use xlink:href="#DejaVuSans-31" transform="translate(1071.093905 39.046875) scale(0.7)"/>
     </g>
    </g>
    <g id="text_28">
     <!-- 1e11 -->
     <g style="fill: #ffffff" transform="translate(79.2 16.318125) scale(0.12 -0.12)">
      <use xlink:href="#DejaVuSans-31"/>
      <use xlink:href="#DejaVuSans-65" x="63.623047"/>
      <use xlink:href="#DejaVuSans-31" x="125.146484"/>
      <use xlink:href="#DejaVuSans-31" x="188.769531"/>
     </g>
    </g>
   </g>
   <g id="line2d_65">
    <path d="M 192.445535 -1 
L 191.003957 8.314219 
L 189.331078 17.883637 
L 186.663665 32.37494 
L 185.002249 42.346198 
L 183.345211 51.021125 
L 181.03268 62.733387 
L 179.386077 71.453066 
L 177.743794 79.031097 
L 175.451822 89.208398 
L 173.819836 96.493318 
L 172.192111 102.846417 
L 169.272894 113.815097 
L 167.657014 119.417661 
L 165.7235 125.271088 
L 161.554827 137.454626 
L 157.414121 147.497074 
L 155.512382 151.408497 
L 151.097773 159.646506 
L 147.65135 164.990515 
L 145.46826 167.93077 
L 142.053425 172.007861 
L 139.890298 174.226627 
L 136.506618 177.291551 
L 134.057596 179.173893 
L 131.314276 181.026751 
L 128.5834 182.603996 
L 125.563584 184.07889 
L 122.858701 185.190026 
L 118.973134 186.503382 
L 114.225428 187.696298 
L 109.80868 188.488029 
L 106.590565 188.910892 
L 101.651419 189.390223 
L 95.893363 189.738759 
L 89.624364 189.943871 
L 73.139378 190.113465 
L 57.383277 190.340931 
L 8.672165 191.396287 
L -1 191.44937 
L -1 191.44937 
" clip-path="url(#p424b9963af)" style="fill: none; stroke: #0000ff; stroke-width: 1.5; stroke-linecap: square"/>
   </g>
   <g id="line2d_66">
    <path d="M 200.994965 -1 
L 147.65135 191.830519 
L 147.65135 191.830519 
" clip-path="url(#p424b9963af)" style="fill: none; stroke-dasharray: 5.55,2.4; stroke-dashoffset: 0; stroke: #000000; stroke-width: 1.5"/>
   </g>
   <g id="patch_7">
    <path d="M 79.2 192.118125 
L 79.2 19.318125 
" style="fill: none; stroke: #000000; stroke-width: 0.8; stroke-linejoin: miter; stroke-linecap: square"/>
   </g>
   <g id="patch_8">
    <path d="M 252 192.118125 
L 252 19.318125 
" style="fill: none; stroke: #000000; stroke-width: 0.8; stroke-linejoin: miter; stroke-linecap: square"/>
   </g>
   <g id="patch_9">
    <path d="M 79.2 192.118125 
L 252 192.118125 
" style="fill: none; stroke: #000000; stroke-width: 0.8; stroke-linejoin: miter; stroke-linecap: square"/>
   </g>
   <g id="patch_10">
    <path d="M 79.2 19.318125 
L 252 19.318125 
" style="fill: none; stroke: #000000; stroke-width: 0.8; stroke-linejoin: miter; stroke-linecap: square"/>
   </g>
   <g id="legend_2">
    <g id="patch_11">
     <path d="M 84.8 37.460625 
L 165.60875 37.460625 
Q 167.20875 37.460625 167.20875 35.860625 
L 167.20875 24.918125 
Q 167.20875 23.318125 165.60875 23.318125 
L 84.8 23.318125 
Q 83.2 23.318125 83.2 24.918125 
L 83.2 35.860625 
Q 83.2 37.460625 84.8 37.460625 
z
" style="fill: #ffffff; opacity: 0.8; stroke: #cccccc; stroke-linejoin: miter"/>
    </g>
    <g id="line2d_67">
     <path d="M 86.4 29.796875 
L 94.4 29.796875 
L 102.4 29.796875 
" style="fill: none; stroke-dasharray: 5.55,2.4; stroke-dashoffset: 0; stroke: #000000; stroke-width: 1.5"/>
    </g>
    <g id="text_29">
     <!-- Ebg = 5.30eV -->
     <g transform="translate(108.8 32.596875) scale(0.08 -0.08)">
      <defs>
       <path id="DejaVuSans-45" d="M 628 4666 
L 3578 4666 
L 3578 4134 
L 1259 4134 
L 1259 2753 
L 3481 2753 
L 3481 2222 
L 1259 2222 
L 1259 531 
L 3634 531 
L 3634 0 
L 628 0 
L 628 4666 
z
" transform="scale(0.015625)"/>
       <path id="DejaVuSans-62" d="M 3116 1747 
Q 3116 2381 2855 2742 
Q 2594 3103 2138 3103 
Q 1681 3103 1420 2742 
Q 1159 2381 1159 1747 
Q 1159 1113 1420 752 
Q 1681 391 2138 391 
Q 2594 391 2855 752 
Q 3116 1113 3116 1747 
z
M 1159 2969 
Q 1341 3281 1617 3432 
Q 1894 3584 2278 3584 
Q 2916 3584 3314 3078 
Q 3713 2572 3713 1747 
Q 3713 922 3314 415 
Q 2916 -91 2278 -91 
Q 1894 -91 1617 61 
Q 1341 213 1159 525 
L 1159 0 
L 581 0 
L 581 4863 
L 1159 4863 
L 1159 2969 
z
" transform="scale(0.015625)"/>
       <path id="DejaVuSans-67" d="M 2906 1791 
Q 2906 2416 2648 2759 
Q 2391 3103 1925 3103 
Q 1463 3103 1205 2759 
Q 947 2416 947 1791 
Q 947 1169 1205 825 
Q 1463 481 1925 481 
Q 2391 481 2648 825 
Q 2906 1169 2906 1791 
z
M 3481 434 
Q 3481 -459 3084 -895 
Q 2688 -1331 1869 -1331 
Q 1566 -1331 1297 -1286 
Q 1028 -1241 775 -1147 
L 775 -588 
Q 1028 -725 1275 -790 
Q 1522 -856 1778 -856 
Q 2344 -856 2625 -561 
Q 2906 -266 2906 331 
L 2906 616 
Q 2728 306 2450 153 
Q 2172 0 1784 0 
Q 1141 0 747 490 
Q 353 981 353 1791 
Q 353 2603 747 3093 
Q 1141 3584 1784 3584 
Q 2172 3584 2450 3431 
Q 2728 3278 2906 2969 
L 2906 3500 
L 3481 3500 
L 3481 434 
z
" transform="scale(0.015625)"/>
       <path id="DejaVuSans-3d" d="M 678 2906 
L 4684 2906 
L 4684 2381 
L 678 2381 
L 678 2906 
z
M 678 1631 
L 4684 1631 
L 4684 1100 
L 678 1100 
L 678 1631 
z
" transform="scale(0.015625)"/>
      </defs>
      <use xlink:href="#DejaVuSans-45"/>
      <use xlink:href="#DejaVuSans-62" x="63.183594"/>
      <use xlink:href="#DejaVuSans-67" x="126.660156"/>
      <use xlink:href="#DejaVuSans-20" x="190.136719"/>
      <use xlink:href="#DejaVuSans-3d" x="221.923828"/>
      <use xlink:href="#DejaVuSans-20" x="305.712891"/>
      <use xlink:href="#DejaVuSans-35" x="337.5"/>
      <use xlink:href="#DejaVuSans-2e" x="401.123047"/>
      <use xlink:href="#DejaVuSans-33" x="432.910156"/>
      <use xlink:href="#DejaVuSans-30" x="496.533203"/>
      <use xlink:href="#DejaVuSans-65" x="560.15625"/>
      <use xlink:href="#DejaVuSans-56" x="621.679688"/>
     </g>
    </g>
   </g>
  </g>
  <g id="axes_3">
   <g id="patch_12">
    <path d="M 79.2 399.478125 
L 252 399.478125 
L 252 226.678125 
L 79.2 226.678125 
z
" style="fill: #ffffff"/>
   </g>
   <g id="matplotlib.axis_5">
    <g id="xtick_19">
     <g id="line2d_68">
      <g>
       <use xlink:href="#m98a4fd4951" x="79.2" y="399.478125" style="stroke: #000000; stroke-width: 2"/>
      </g>
     </g>
     <g id="text_30">
      <!-- 4.6 -->
      <g transform="translate(69.658125 412.09625) scale(0.12 -0.12)">
       <use xlink:href="#DejaVuSans-34"/>
       <use xlink:href="#DejaVuSans-2e" x="63.623047"/>
       <use xlink:href="#DejaVuSans-36" x="95.410156"/>
      </g>
     </g>
    </g>
    <g id="xtick_20">
     <g id="line2d_69">
      <g>
       <use xlink:href="#m98a4fd4951" x="125.28" y="399.478125" style="stroke: #000000; stroke-width: 2"/>
      </g>
     </g>
     <g id="text_31">
      <!-- 4.8 -->
      <g transform="translate(115.738125 412.09625) scale(0.12 -0.12)">
       <use xlink:href="#DejaVuSans-34"/>
       <use xlink:href="#DejaVuSans-2e" x="63.623047"/>
       <use xlink:href="#DejaVuSans-38" x="95.410156"/>
      </g>
     </g>
    </g>
    <g id="xtick_21">
     <g id="line2d_70">
      <g>
       <use xlink:href="#m98a4fd4951" x="171.36" y="399.478125" style="stroke: #000000; stroke-width: 2"/>
      </g>
     </g>
     <g id="text_32">
      <!-- 5.0 -->
      <g transform="translate(161.818125 412.09625) scale(0.12 -0.12)">
       <use xlink:href="#DejaVuSans-35"/>
       <use xlink:href="#DejaVuSans-2e" x="63.623047"/>
       <use xlink:href="#DejaVuSans-30" x="95.410156"/>
      </g>
     </g>
    </g>
    <g id="xtick_22">
     <g id="line2d_71">
      <g>
       <use xlink:href="#m98a4fd4951" x="217.44" y="399.478125" style="stroke: #000000; stroke-width: 2"/>
      </g>
     </g>
     <g id="text_33">
      <!-- 5.2 -->
      <g transform="translate(207.898125 412.09625) scale(0.12 -0.12)">
       <use xlink:href="#DejaVuSans-35"/>
       <use xlink:href="#DejaVuSans-2e" x="63.623047"/>
       <use xlink:href="#DejaVuSans-32" x="95.410156"/>
      </g>
     </g>
    </g>
    <g id="xtick_23">
     <g id="line2d_72">
      <g>
       <use xlink:href="#mef771845a0" x="102.24" y="399.478125" style="stroke: #000000; stroke-width: 2"/>
      </g>
     </g>
    </g>
    <g id="xtick_24">
     <g id="line2d_73">
      <g>
       <use xlink:href="#mef771845a0" x="148.32" y="399.478125" style="stroke: #000000; stroke-width: 2"/>
      </g>
     </g>
    </g>
    <g id="xtick_25">
     <g id="line2d_74">
      <g>
       <use xlink:href="#mef771845a0" x="194.4" y="399.478125" style="stroke: #000000; stroke-width: 2"/>
      </g>
     </g>
    </g>
    <g id="xtick_26">
     <g id="line2d_75">
      <g>
       <use xlink:href="#mef771845a0" x="240.48" y="399.478125" style="stroke: #000000; stroke-width: 2"/>
      </g>
     </g>
    </g>
   </g>
   <g id="matplotlib.axis_6">
    <g id="ytick_43">
     <g id="line2d_76">
      <g>
       <use xlink:href="#m0d19fcf424" x="79.2" y="399.478125" style="stroke: #000000; stroke-width: 2"/>
      </g>
     </g>
     <g id="text_34">
      <!-- 0.00 -->
      <g transform="translate(48.98125 404.037187) scale(0.12 -0.12)">
       <use xlink:href="#DejaVuSans-30"/>
       <use xlink:href="#DejaVuSans-2e" x="63.623047"/>
       <use xlink:href="#DejaVuSans-30" x="95.410156"/>
       <use xlink:href="#DejaVuSans-30" x="159.033203"/>
      </g>
     </g>
    </g>
    <g id="ytick_44">
     <g id="line2d_77">
      <g>
       <use xlink:href="#m0d19fcf424" x="79.2" y="370.636761" style="stroke: #000000; stroke-width: 2"/>
      </g>
     </g>
     <g id="text_35">
      <!-- 0.25 -->
      <g transform="translate(48.98125 375.195824) scale(0.12 -0.12)">
       <use xlink:href="#DejaVuSans-30"/>
       <use xlink:href="#DejaVuSans-2e" x="63.623047"/>
       <use xlink:href="#DejaVuSans-32" x="95.410156"/>
       <use xlink:href="#DejaVuSans-35" x="159.033203"/>
      </g>
     </g>
    </g>
    <g id="ytick_45">
     <g id="line2d_78">
      <g>
       <use xlink:href="#m0d19fcf424" x="79.2" y="341.795398" style="stroke: #000000; stroke-width: 2"/>
      </g>
     </g>
     <g id="text_36">
      <!-- 0.50 -->
      <g transform="translate(48.98125 346.35446) scale(0.12 -0.12)">
       <use xlink:href="#DejaVuSans-30"/>
       <use xlink:href="#DejaVuSans-2e" x="63.623047"/>
       <use xlink:href="#DejaVuSans-35" x="95.410156"/>
       <use xlink:href="#DejaVuSans-30" x="159.033203"/>
      </g>
     </g>
    </g>
    <g id="ytick_46">
     <g id="line2d_79">
      <g>
       <use xlink:href="#m0d19fcf424" x="79.2" y="312.954034" style="stroke: #000000; stroke-width: 2"/>
      </g>
     </g>
     <g id="text_37">
      <!-- 0.75 -->
      <g transform="translate(48.98125 317.513097) scale(0.12 -0.12)">
       <use xlink:href="#DejaVuSans-30"/>
       <use xlink:href="#DejaVuSans-2e" x="63.623047"/>
       <use xlink:href="#DejaVuSans-37" x="95.410156"/>
       <use xlink:href="#DejaVuSans-35" x="159.033203"/>
      </g>
     </g>
    </g>
    <g id="ytick_47">
     <g id="line2d_80">
      <g>
       <use xlink:href="#m0d19fcf424" x="79.2" y="284.112671" style="stroke: #000000; stroke-width: 2"/>
      </g>
     </g>
     <g id="text_38">
      <!-- 1.00 -->
      <g transform="translate(48.98125 288.671733) scale(0.12 -0.12)">
       <use xlink:href="#DejaVuSans-31"/>
       <use xlink:href="#DejaVuSans-2e" x="63.623047"/>
       <use xlink:href="#DejaVuSans-30" x="95.410156"/>
       <use xlink:href="#DejaVuSans-30" x="159.033203"/>
      </g>
     </g>
    </g>
    <g id="ytick_48">
     <g id="line2d_81">
      <g>
       <use xlink:href="#m0d19fcf424" x="79.2" y="255.271307" style="stroke: #000000; stroke-width: 2"/>
      </g>
     </g>
     <g id="text_39">
      <!-- 1.25 -->
      <g transform="translate(48.98125 259.83037) scale(0.12 -0.12)">
       <use xlink:href="#DejaVuSans-31"/>
       <use xlink:href="#DejaVuSans-2e" x="63.623047"/>
       <use xlink:href="#DejaVuSans-32" x="95.410156"/>
       <use xlink:href="#DejaVuSans-35" x="159.033203"/>
      </g>
     </g>
    </g>
    <g id="ytick_49">
     <g id="line2d_82">
      <g>
       <use xlink:href="#m3ca38de964" x="79.2" y="392.267784" style="stroke: #000000; stroke-width: 2"/>
      </g>
     </g>
    </g>
    <g id="ytick_50">
     <g id="line2d_83">
      <g>
       <use xlink:href="#m3ca38de964" x="79.2" y="385.057443" style="stroke: #000000; stroke-width: 2"/>
      </g>
     </g>
    </g>
    <g id="ytick_51">
     <g id="line2d_84">
      <g>
       <use xlink:href="#m3ca38de964" x="79.2" y="377.847102" style="stroke: #000000; stroke-width: 2"/>
      </g>
     </g>
    </g>
    <g id="ytick_52">
     <g id="line2d_85">
      <g>
       <use xlink:href="#m3ca38de964" x="79.2" y="363.426421" style="stroke: #000000; stroke-width: 2"/>
      </g>
     </g>
    </g>
    <g id="ytick_53">
     <g id="line2d_86">
      <g>
       <use xlink:href="#m3ca38de964" x="79.2" y="356.21608" style="stroke: #000000; stroke-width: 2"/>
      </g>
     </g>
    </g>
    <g id="ytick_54">
     <g id="line2d_87">
      <g>
       <use xlink:href="#m3ca38de964" x="79.2" y="349.005739" style="stroke: #000000; stroke-width: 2"/>
      </g>
     </g>
    </g>
    <g id="ytick_55">
     <g id="line2d_88">
      <g>
       <use xlink:href="#m3ca38de964" x="79.2" y="334.585057" style="stroke: #000000; stroke-width: 2"/>
      </g>
     </g>
    </g>
    <g id="ytick_56">
     <g id="line2d_89">
      <g>
       <use xlink:href="#m3ca38de964" x="79.2" y="327.374716" style="stroke: #000000; stroke-width: 2"/>
      </g>
     </g>
    </g>
    <g id="ytick_57">
     <g id="line2d_90">
      <g>
       <use xlink:href="#m3ca38de964" x="79.2" y="320.164375" style="stroke: #000000; stroke-width: 2"/>
      </g>
     </g>
    </g>
    <g id="ytick_58">
     <g id="line2d_91">
      <g>
       <use xlink:href="#m3ca38de964" x="79.2" y="305.743693" style="stroke: #000000; stroke-width: 2"/>
      </g>
     </g>
    </g>
    <g id="ytick_59">
     <g id="line2d_92">
      <g>
       <use xlink:href="#m3ca38de964" x="79.2" y="298.533352" style="stroke: #000000; stroke-width: 2"/>
      </g>
     </g>
    </g>
    <g id="ytick_60">
     <g id="line2d_93">
      <g>
       <use xlink:href="#m3ca38de964" x="79.2" y="291.323012" style="stroke: #000000; stroke-width: 2"/>
      </g>
     </g>
    </g>
    <g id="ytick_61">
     <g id="line2d_94">
      <g>
       <use xlink:href="#m3ca38de964" x="79.2" y="276.90233" style="stroke: #000000; stroke-width: 2"/>
      </g>
     </g>
    </g>
    <g id="ytick_62">
     <g id="line2d_95">
      <g>
       <use xlink:href="#m3ca38de964" x="79.2" y="269.691989" style="stroke: #000000; stroke-width: 2"/>
      </g>
     </g>
    </g>
    <g id="ytick_63">
     <g id="line2d_96">
      <g>
       <use xlink:href="#m3ca38de964" x="79.2" y="262.481648" style="stroke: #000000; stroke-width: 2"/>
      </g>
     </g>
    </g>
    <g id="ytick_64">
     <g id="line2d_97">
      <g>
       <use xlink:href="#m3ca38de964" x="79.2" y="248.060966" style="stroke: #000000; stroke-width: 2"/>
      </g>
     </g>
    </g>
    <g id="ytick_65">
     <g id="line2d_98">
      <g>
       <use xlink:href="#m3ca38de964" x="79.2" y="240.850625" style="stroke: #000000; stroke-width: 2"/>
      </g>
     </g>
    </g>
    <g id="ytick_66">
     <g id="line2d_99">
      <g>
       <use xlink:href="#m3ca38de964" x="79.2" y="233.640284" style="stroke: #000000; stroke-width: 2"/>
      </g>
     </g>
    </g>
    <g id="text_40">
     <!-- $\alpha hv^{2} \, (eV cm^{-1})^{2} \times 10^{11}$ -->
     <g transform="translate(42.901562 369.028125) rotate(-90) scale(0.1 -0.1)">
      <use xlink:href="#DejaVuSans-Oblique-3b1" transform="translate(0 0.765625)"/>
      <use xlink:href="#DejaVuSans-Oblique-68" transform="translate(65.917969 0.765625)"/>
      <use xlink:href="#DejaVuSans-Oblique-76" transform="translate(129.296875 0.765625)"/>
      <use xlink:href="#DejaVuSans-32" transform="translate(192.942708 39.046875) scale(0.7)"/>
      <use xlink:href="#DejaVuSans-28" transform="translate(256.448892 0.765625)"/>
      <use xlink:href="#DejaVuSans-Oblique-65" transform="translate(295.462564 0.765625)"/>
      <use xlink:href="#DejaVuSans-Oblique-56" transform="translate(356.986002 0.765625)"/>
      <use xlink:href="#DejaVuSans-Oblique-63" transform="translate(425.394205 0.765625)"/>
      <use xlink:href="#DejaVuSans-Oblique-6d" transform="translate(480.374674 0.765625)"/>
      <use xlink:href="#DejaVuSans-2212" transform="translate(582.436679 39.046875) scale(0.7)"/>
      <use xlink:href="#DejaVuSans-31" transform="translate(641.089023 39.046875) scale(0.7)"/>
      <use xlink:href="#DejaVuSans-29" transform="translate(688.35953 0.765625)"/>
      <use xlink:href="#DejaVuSans-32" transform="translate(728.330234 39.046875) scale(0.7)"/>
      <use xlink:href="#DejaVuSans-d7" transform="translate(795.083163 0.765625)"/>
      <use xlink:href="#DejaVuSans-31" transform="translate(898.354648 0.765625)"/>
      <use xlink:href="#DejaVuSans-30" transform="translate(961.977694 0.765625)"/>
      <use xlink:href="#DejaVuSans-31" transform="translate(1026.557773 39.046875) scale(0.7)"/>
      <use xlink:href="#DejaVuSans-31" transform="translate(1071.093905 39.046875) scale(0.7)"/>
     </g>
    </g>
    <g id="text_41">
     <!-- 1e11 -->
     <g style="fill: #ffffff" transform="translate(79.2 223.678125) scale(0.12 -0.12)">
      <use xlink:href="#DejaVuSans-31"/>
      <use xlink:href="#DejaVuSans-65" x="63.623047"/>
      <use xlink:href="#DejaVuSans-31" x="125.146484"/>
      <use xlink:href="#DejaVuSans-31" x="188.769531"/>
     </g>
    </g>
   </g>
   <g id="line2d_100">
    <path d="M 449.606938 165.610794 
L 446.609713 161.1713 
L 443.625024 156.338503 
L 441.500735 152.89832 
L 438.537354 148.191995 
L 434.325312 141.341989 
L 430.973638 136.717064 
L 428.053921 132.607321 
L 424.317699 129.232413 
L 421.425423 126.507002 
L 415.676448 124.284421 
L 414.450653 123.900643 
L 407.544934 124.154298 
L 399.907237 126.214852 
L 386.447495 130.727188 
L 379.815567 132.562816 
L 371.327991 134.44867 
L 362.567116 136.357696 
L 359.169778 137.283005 
L 354.29274 138.726349 
L 345.012922 141.925556 
L 338.410943 144.158482 
L 335.134552 145.133333 
L 327.911635 147.080756 
L 320.05747 149.187293 
L 317.931761 149.877311 
L 312.297025 151.893665 
L 306.016115 154.613921 
L 298.421829 158.345402 
L 291.934907 161.766115 
L 288.547095 163.689898 
L 283.83435 166.578325 
L 278.823665 170.167565 
L 273.52252 175.010033 
L 267.938732 181.986904 
L 264.027076 188.378118 
L 262.728632 190.622541 
L 259.817014 196.81444 
L 257.240334 202.227173 
L 254.674335 208.682374 
L 251.481759 216.553295 
L 248.939554 223.376749 
L 246.092085 230.820417 
L 243.886488 236.823609 
L 234.213425 261.471232 
L 231.741909 267.147208 
L 230.509918 270.071815 
L 228.053432 275.634738 
L 222.259022 287.785904 
L 212.923329 305.478009 
L 206.681051 316.003542 
L 205.204406 318.439796 
L 202.55568 322.586198 
L 194.680024 334.01393 
L 192.078053 337.425366 
L 190.062249 340.092255 
L 187.480661 343.269854 
L 185.195456 346.087779 
L 182.635264 349.034482 
L 180.934708 351.034151 
L 178.393175 353.871454 
L 176.143353 356.382456 
L 173.622721 359.088969 
L 171.669811 361.215164 
L 169.168616 363.863287 
L 167.230736 365.912063 
L 164.748754 368.514063 
L 162.277482 371.073929 
L 159.816852 373.528657 
L 157.91034 375.438224 
L 155.739261 377.53332 
L 148.205255 384.139151 
L 145.80478 385.921938 
L 139.979711 389.752081 
L 137.351822 391.160305 
L 133.693415 392.827551 
L 130.317696 394.07053 
L 126.962368 395.06576 
L 123.115933 395.95635 
L 118.535329 396.728007 
L 113.239111 397.335121 
L 107.000257 397.802141 
L 95.947834 398.284509 
L 80.13797 398.727824 
L 67.313501 398.88592 
L 48.758976 398.938263 
L 7.78221 399.045256 
L -1 399.067528 
L -1 399.067528 
" clip-path="url(#pf90fc58166)" style="fill: none; stroke: #008000; stroke-width: 1.5; stroke-linecap: square"/>
   </g>
   <g id="line2d_101">
    <path d="M 304.628636 124.489395 
L 166.126307 399.031558 
L 166.126307 399.031558 
" clip-path="url(#pf90fc58166)" style="fill: none; stroke-dasharray: 5.55,2.4; stroke-dashoffset: 0; stroke: #000000; stroke-width: 1.5"/>
   </g>
   <g id="patch_13">
    <path d="M 79.2 399.478125 
L 79.2 226.678125 
" style="fill: none; stroke: #000000; stroke-width: 0.8; stroke-linejoin: miter; stroke-linecap: square"/>
   </g>
   <g id="patch_14">
    <path d="M 252 399.478125 
L 252 226.678125 
" style="fill: none; stroke: #000000; stroke-width: 0.8; stroke-linejoin: miter; stroke-linecap: square"/>
   </g>
   <g id="patch_15">
    <path d="M 79.2 399.478125 
L 252 399.478125 
" style="fill: none; stroke: #000000; stroke-width: 0.8; stroke-linejoin: miter; stroke-linecap: square"/>
   </g>
   <g id="patch_16">
    <path d="M 79.2 226.678125 
L 252 226.678125 
" style="fill: none; stroke: #000000; stroke-width: 0.8; stroke-linejoin: miter; stroke-linecap: square"/>
   </g>
   <g id="legend_3">
    <g id="patch_17">
     <path d="M 84.8 244.820625 
L 165.60875 244.820625 
Q 167.20875 244.820625 167.20875 243.220625 
L 167.20875 232.278125 
Q 167.20875 230.678125 165.60875 230.678125 
L 84.8 230.678125 
Q 83.2 230.678125 83.2 232.278125 
L 83.2 243.220625 
Q 83.2 244.820625 84.8 244.820625 
z
" style="fill: #ffffff; opacity: 0.8; stroke: #cccccc; stroke-linejoin: miter"/>
    </g>
    <g id="line2d_102">
     <path d="M 86.4 237.156875 
L 94.4 237.156875 
L 102.4 237.156875 
" style="fill: none; stroke-dasharray: 5.55,2.4; stroke-dashoffset: 0; stroke: #000000; stroke-width: 1.5"/>
    </g>
    <g id="text_42">
     <!-- Ebg = 4.98eV -->
     <g transform="translate(108.8 239.956875) scale(0.08 -0.08)">
      <defs>
       <path id="DejaVuSans-39" d="M 703 97 
L 703 672 
Q 941 559 1184 500 
Q 1428 441 1663 441 
Q 2288 441 2617 861 
Q 2947 1281 2994 2138 
Q 2813 1869 2534 1725 
Q 2256 1581 1919 1581 
Q 1219 1581 811 2004 
Q 403 2428 403 3163 
Q 403 3881 828 4315 
Q 1253 4750 1959 4750 
Q 2769 4750 3195 4129 
Q 3622 3509 3622 2328 
Q 3622 1225 3098 567 
Q 2575 -91 1691 -91 
Q 1453 -91 1209 -44 
Q 966 3 703 97 
z
M 1959 2075 
Q 2384 2075 2632 2365 
Q 2881 2656 2881 3163 
Q 2881 3666 2632 3958 
Q 2384 4250 1959 4250 
Q 1534 4250 1286 3958 
Q 1038 3666 1038 3163 
Q 1038 2656 1286 2365 
Q 1534 2075 1959 2075 
z
" transform="scale(0.015625)"/>
      </defs>
      <use xlink:href="#DejaVuSans-45"/>
      <use xlink:href="#DejaVuSans-62" x="63.183594"/>
      <use xlink:href="#DejaVuSans-67" x="126.660156"/>
      <use xlink:href="#DejaVuSans-20" x="190.136719"/>
      <use xlink:href="#DejaVuSans-3d" x="221.923828"/>
      <use xlink:href="#DejaVuSans-20" x="305.712891"/>
      <use xlink:href="#DejaVuSans-34" x="337.5"/>
      <use xlink:href="#DejaVuSans-2e" x="401.123047"/>
      <use xlink:href="#DejaVuSans-39" x="432.910156"/>
      <use xlink:href="#DejaVuSans-38" x="496.533203"/>
      <use xlink:href="#DejaVuSans-65" x="560.15625"/>
      <use xlink:href="#DejaVuSans-56" x="621.679688"/>
     </g>
    </g>
   </g>
  </g>
 </g>
 <defs>
  <clipPath id="pd892c7d47d">
   <rect x="7.2" y="16.438125" width="446.4" height="434.88"/>
  </clipPath>
  <clipPath id="p424b9963af">
   <rect x="79.2" y="19.318125" width="172.8" height="172.8"/>
  </clipPath>
  <clipPath id="pf90fc58166">
   <rect x="79.2" y="226.678125" width="172.8" height="172.8"/>
  </clipPath>
 </defs>
</svg>
